<?xml version="1.0" encoding="UTF-8"?>
<svg version="1.1" xmlns="http://www.w3.org/2000/svg" width="512" height="512">
<path d="M0 0 C1.51427582 0.00081573 1.51427582 0.00081573 3.05914307 0.00164795 C19.56873539 0.04241399 35.48532001 0.94970691 51.6875 4.375 C52.72938477 4.59462402 53.77126953 4.81424805 54.84472656 5.04052734 C93.68168442 13.51175634 143.32275213 31.94315344 169.6875 63.375 C169.6875 66.375 169.6875 66.375 168.4296875 67.70703125 C167.81351562 68.19558594 167.19734375 68.68414062 166.5625 69.1875 C162.35826176 72.6960191 158.52777162 76.48009349 154.6875 80.375 C150.52192436 84.58591896 146.33455701 88.6474873 141.80859375 92.47265625 C138.81610779 95.15652487 136.01316741 98.01734089 133.1875 100.875 C129.79743619 104.30344551 126.43556043 107.69760699 122.75 110.8125 C118.84477042 114.12075181 115.2849244 117.74032835 111.6875 121.375 C105.32081219 127.80143336 98.76476886 133.7373807 91.6875 139.375 C90.77871094 138.7459375 89.86992187 138.116875 88.93359375 137.46875 C54.1069938 113.62498718 14.28822138 103.0197162 -27.68017578 110.84472656 C-54.01026872 116.148841 -76.9565555 127.99722536 -97.3125 145.375 C-98.09496094 146.02210938 -98.87742188 146.66921875 -99.68359375 147.3359375 C-105.67772498 152.42627425 -110.5228561 158.1544607 -115.3125 164.375 C-115.98152344 165.22835937 -116.65054688 166.08171875 -117.33984375 166.9609375 C-141.03004085 198.2038509 -151.0393474 237.50944934 -146.1875 276.25 C-140.62743452 315.74920124 -119.16838321 351.51046879 -87.60058594 375.68603516 C-56.60765526 398.82849028 -16.95566042 408.31343848 21.1875 403.25 C50.03561043 398.95050912 79.44089851 386.21441202 99.95703125 365.046875 C102.6875 362.375 102.6875 362.375 104.6875 362.375 C104.95022705 361.78235352 105.2129541 361.18970703 105.48364258 360.57910156 C106.74336088 358.27272621 108.03237629 356.89035704 109.94921875 355.109375 C113.59725014 351.55851125 116.58557624 347.79016016 119.5 343.625 C120.00772949 342.90344727 120.51545898 342.18189453 121.03857422 341.43847656 C127.68859549 331.75253097 133.32425664 321.28310839 137.6875 310.375 C92.4775 310.375 47.2675 310.375 0.6875 310.375 C0.6875 274.735 0.6875 239.095 0.6875 202.375 C83.5175 202.375 166.3475 202.375 251.6875 202.375 C256.77240479 230.34197634 256.77240479 230.34197634 256.84863281 238.07080078 C256.85809433 238.87761795 256.86755585 239.68443512 256.87730408 240.51570129 C256.88169998 241.35872299 256.88609589 242.20174469 256.890625 243.0703125 C256.89763931 243.97226852 256.90465363 244.87422455 256.91188049 245.80351257 C256.92930732 248.70239297 256.93573387 251.60106913 256.9375 254.5 C256.93851212 255.98480362 256.93851212 255.98480362 256.93954468 257.49960327 C256.92380577 272.01190948 256.46476226 286.09352715 253.6875 300.375 C253.5318457 301.25607422 253.37619141 302.13714844 253.21582031 303.04492188 C247.23111331 336.70740559 234.16942459 370.18701486 214.6875 398.375 C214.28611816 398.96732422 213.88473633 399.55964844 213.47119141 400.16992188 C207.42825584 409.06320844 200.74411431 417.27255361 193.6875 425.375 C193.11902344 426.055625 192.55054688 426.73625 191.96484375 427.4375 C182.68219847 438.45322227 172.11184812 448.62247523 160.6875 457.375 C159.5102685 458.30449987 158.3331953 459.23420027 157.15625 460.1640625 C142.18580908 471.8386795 125.8691814 481.3448154 108.6875 489.375 C108.07583984 489.66681152 107.46417969 489.95862305 106.83398438 490.25927734 C87.39277319 499.48204833 66.81787335 505.52633334 45.6875 509.375 C44.85186523 509.53871094 44.01623047 509.70242188 43.15527344 509.87109375 C15.43418188 515.1637992 -16.65059037 514.77440744 -44.3125 509.375 C-45.20952637 509.21402832 -46.10655273 509.05305664 -47.03076172 508.88720703 C-96.57103843 499.92294003 -141.03343232 475.92801512 -177.3125 441.375 C-177.91143066 440.80475098 -178.51036133 440.23450195 -179.12744141 439.64697266 C-187.47483383 431.63993842 -195.12167548 423.41693433 -202.01074219 414.12109375 C-203.31169628 412.37607805 -204.64089499 410.65603937 -205.9765625 408.9375 C-228.80973535 379.18093286 -243.77343257 344.00080099 -251.3125 307.375 C-251.52277832 306.37388184 -251.73305664 305.37276367 -251.94970703 304.34130859 C-258.30174225 272.62136711 -257.99858653 237.00125059 -251.3125 205.375 C-251.09287598 204.33311523 -250.87325195 203.29123047 -250.64697266 202.21777344 C-240.41595434 155.31293505 -217.63116959 112.86789583 -184.3125 78.375 C-183.71356934 77.75415527 -183.11463867 77.13331055 -182.49755859 76.49365234 C-174.83373497 68.59249741 -167.09251606 61.04733045 -158.3125 54.375 C-157.77222168 53.95831055 -157.23194336 53.54162109 -156.67529297 53.11230469 C-146.6802884 45.4290127 -136.22040964 38.68657032 -125.3125 32.375 C-124.63525879 31.98070801 -123.95801758 31.58641602 -123.26025391 31.18017578 C-85.78842175 9.62720879 -42.92346256 -0.0873199 0 0 Z " fill="#2A9AF3" transform="translate(255.3125,-0.375)"/>
<path d="M0 0 C1.51427582 0.00081573 1.51427582 0.00081573 3.05914307 0.00164795 C19.56873539 0.04241399 35.48532001 0.94970691 51.6875 4.375 C52.72938477 4.59462402 53.77126953 4.81424805 54.84472656 5.04052734 C93.68168442 13.51175634 143.32275213 31.94315344 169.6875 63.375 C169.6875 66.375 169.6875 66.375 168.4296875 67.70703125 C167.81351562 68.19558594 167.19734375 68.68414062 166.5625 69.1875 C162.35826176 72.6960191 158.52777162 76.48009349 154.6875 80.375 C150.52192436 84.58591896 146.33455701 88.6474873 141.80859375 92.47265625 C138.81610779 95.15652487 136.01316741 98.01734089 133.1875 100.875 C129.79743619 104.30344551 126.43556043 107.69760699 122.75 110.8125 C118.84477042 114.12075181 115.2849244 117.74032835 111.6875 121.375 C105.32081219 127.80143336 98.76476886 133.7373807 91.6875 139.375 C90.77871094 138.7459375 89.86992187 138.116875 88.93359375 137.46875 C54.1069938 113.62498718 14.28822138 103.0197162 -27.68017578 110.84472656 C-54.01026872 116.148841 -76.9565555 127.99722536 -97.3125 145.375 C-98.09496094 146.02210938 -98.87742188 146.66921875 -99.68359375 147.3359375 C-105.67772498 152.42627425 -110.5228561 158.1544607 -115.3125 164.375 C-115.98152344 165.22835937 -116.65054688 166.08171875 -117.33984375 166.9609375 C-141.08096919 198.2710158 -151.06784227 237.63000545 -146.125 276.4375 C-144.94470164 284.96427953 -142.96166891 293.05619329 -140.30078125 301.234375 C-139.3125 304.375 -139.3125 304.375 -139.3125 306.375 C-140.61914063 307.58911133 -140.61914063 307.58911133 -142.46875 308.95703125 C-143.15348389 309.47023926 -143.83821777 309.98344727 -144.54370117 310.51220703 C-145.66675659 311.34147705 -145.66675659 311.34147705 -146.8125 312.1875 C-152.80226959 316.68375749 -158.70868684 321.25055193 -164.5 326 C-171.13323682 331.42977582 -177.83879582 336.75620307 -184.59472656 342.03222656 C-187.50521595 344.30733907 -190.40851567 346.59159425 -193.3125 348.875 C-196.84476404 351.65215174 -200.37836608 354.42751728 -203.91796875 357.1953125 C-210.41656178 362.28170449 -216.85669815 367.41914107 -223.203125 372.6953125 C-225.3125 374.375 -225.3125 374.375 -227.3125 375.375 C-238.24445891 353.6919893 -246.41241576 331.18026662 -251.3125 307.375 C-251.52277832 306.37388184 -251.73305664 305.37276367 -251.94970703 304.34130859 C-258.30174225 272.62136711 -257.99858653 237.00125059 -251.3125 205.375 C-251.09287598 204.33311523 -250.87325195 203.29123047 -250.64697266 202.21777344 C-240.41595434 155.31293505 -217.63116959 112.86789583 -184.3125 78.375 C-183.71356934 77.75415527 -183.11463867 77.13331055 -182.49755859 76.49365234 C-174.83373497 68.59249741 -167.09251606 61.04733045 -158.3125 54.375 C-157.77222168 53.95831055 -157.23194336 53.54162109 -156.67529297 53.11230469 C-146.6802884 45.4290127 -136.22040964 38.68657032 -125.3125 32.375 C-124.63525879 31.98070801 -123.95801758 31.58641602 -123.26025391 31.18017578 C-85.78842175 9.62720879 -42.92346256 -0.0873199 0 0 Z " fill="#F5584D" transform="translate(255.3125,-0.375)"/>
<path d="M0 0 C0.99 0.33 1.98 0.66 3 1 C4.18688768 3.38879926 5.20654683 5.71563452 6.1875 8.1875 C21.73266119 45.38499889 50.46670914 71.94390729 87.08203125 87.81054688 C123.72493195 102.74731162 164.01205932 100.87082432 200.3125 86.1875 C206.20514406 83.58328645 211.62424893 80.34416052 216.94067383 76.71948242 C221.29452627 73.89266961 221.29452627 73.89266961 224.46484375 74.375 C228.03727906 76.66488149 231.25586193 79.27018601 234.5 82 C235.93377836 83.18624778 237.36868835 84.37112904 238.8046875 85.5546875 C239.51463867 86.14088867 240.22458984 86.72708984 240.95605469 87.33105469 C243.80165804 89.65457888 246.70249995 91.89943522 249.625 94.125 C255.87609674 98.89618234 262.06196348 103.74585201 268.23828125 108.61328125 C269.97989788 109.98417682 271.72387885 111.35199991 273.46875 112.71875 C280.22399902 118.01183626 286.96022843 123.32763119 293.64257812 128.71264648 C296.45801818 130.98026745 299.28347473 133.21426635 302.16796875 135.39453125 C303.08191406 136.08933594 303.99585938 136.78414062 304.9375 137.5 C305.73027344 138.0878125 306.52304687 138.675625 307.33984375 139.28125 C309 141 309 141 309 145 C305.43589461 148.79072481 301.13786036 151.85453576 297 155 C296.39478516 155.46470703 295.78957031 155.92941406 295.16601562 156.40820312 C263.5139096 180.45321993 225.97428914 195.90125902 187 203 C186.16436523 203.16371094 185.32873047 203.32742188 184.46777344 203.49609375 C156.74668188 208.7887992 124.66190963 208.39940744 97 203 C96.10297363 202.83902832 95.20594727 202.67805664 94.28173828 202.51220703 C44.74146157 193.54794003 0.27906768 169.55301512 -36 135 C-36.59893066 134.42975098 -37.19786133 133.85950195 -37.81494141 133.27197266 C-46.15949797 125.26765866 -53.8062455 117.04706309 -60.69384766 107.75488281 C-62.01054226 105.98583594 -63.35248435 104.23843858 -64.69921875 102.4921875 C-70.13788471 95.35927236 -75.05941234 87.95790262 -79.75 80.3125 C-80.28810303 79.45060059 -80.82620605 78.58870117 -81.38061523 77.70068359 C-82.11260132 76.48179443 -82.11260132 76.48179443 -82.859375 75.23828125 C-83.29733398 74.51680908 -83.73529297 73.79533691 -84.18652344 73.05200195 C-85.18499193 70.5333562 -85.03589404 69.47851751 -84 67 C-82.12368479 65.15318661 -80.29038402 63.51925264 -78.25 61.875 C-77.66726318 61.39417969 -77.08452637 60.91335938 -76.48413086 60.41796875 C-71.51118608 56.34281464 -66.42639628 52.41412882 -61.30859375 48.5234375 C-52.28886956 41.66427058 -43.44833547 34.57104249 -34.6081543 27.4831543 C-28.10820081 22.27595344 -21.55661365 17.13553735 -15 12 C-12.39515782 9.95919332 -9.79113407 7.91734763 -7.1875 5.875 C-6.58220459 5.40118896 -5.97690918 4.92737793 -5.35327148 4.43920898 C-2.58523119 2.32525639 -2.58523119 2.32525639 0 0 Z " fill="#1DB972" transform="translate(114,306)"/>
<path d="M0 0 C0.98742187 0.85078125 1.97484375 1.7015625 2.9921875 2.578125 C13.04628324 11.19303577 23.29853917 19.56087517 33.83203125 27.58203125 C42.1507897 33.93136723 50.33462019 40.45523798 58.5 47 C63.48676111 50.99602676 68.48212793 54.98058038 73.5 58.9375 C74.05107422 59.37384766 74.60214844 59.81019531 75.16992188 60.25976562 C79.03045707 63.29671998 82.98690756 66.16752693 87 69 C86.45032896 73.65676368 85.51693368 77.99856658 84.23510742 82.50610352 C76.42392014 110.01679325 77.15606059 138.64169774 86.01171875 165.859375 C87 169 87 169 87 171 C85.69335937 172.21411133 85.69335937 172.21411133 83.84375 173.58203125 C82.81664917 174.35184326 82.81664917 174.35184326 81.76879883 175.13720703 C81.02009521 175.69005371 80.2713916 176.24290039 79.5 176.8125 C73.51023041 181.30875749 67.60381316 185.87555193 61.8125 190.625 C55.17926318 196.05477582 48.47370418 201.38120307 41.71777344 206.65722656 C38.80728405 208.93233907 35.90398433 211.21659425 33 213.5 C29.46773596 216.27715174 25.93413392 219.05251728 22.39453125 221.8203125 C15.89593822 226.90670449 9.45580185 232.04414107 3.109375 237.3203125 C1 239 1 239 -1 240 C-11.93195891 218.3169893 -20.09991576 195.80526662 -25 172 C-25.21027832 170.99888184 -25.42055664 169.99776367 -25.63720703 168.96630859 C-31.98924225 137.24636711 -31.68608653 101.62625059 -25 70 C-24.78037598 68.95811523 -24.56075195 67.91623047 -24.33447266 66.84277344 C-19.2188045 43.38962531 -10.86091154 21.37812334 0 0 Z " fill="#FECC33" transform="translate(29,135)"/>
<path d="M0 0 C1.51427582 0.00081573 1.51427582 0.00081573 3.05914307 0.00164795 C19.56873539 0.04241399 35.48532001 0.94970691 51.6875 4.375 C52.72938477 4.59462402 53.77126953 4.81424805 54.84472656 5.04052734 C93.68168442 13.51175634 143.32275213 31.94315344 169.6875 63.375 C169.6875 64.365 169.6875 65.355 169.6875 66.375 C164.58724149 65.92891325 162.28821029 64.57267221 158.5625 61.125 C112.60775087 20.72798186 44.81180176 2.67834306 -15.3125 6.375 C-62.6910986 10.06319516 -110.03130458 25.7181119 -148.3125 54.375 C-148.88355469 54.79346191 -149.45460938 55.21192383 -150.04296875 55.64306641 C-157.3076526 60.96897737 -164.0482446 66.69814031 -170.609375 72.859375 C-172.81866012 74.91541491 -175.06248383 76.87600272 -177.375 78.8125 C-192.09413893 91.65001704 -203.83168796 108.03218171 -214.3125 124.375 C-215.18588329 125.72676583 -216.05958407 127.07832659 -216.93359375 128.4296875 C-219.06979388 131.73852688 -221.19437798 135.05456234 -223.3125 138.375 C-223.9725 138.045 -224.6325 137.715 -225.3125 137.375 C-221.15350542 107.43023903 -181.12603209 71.71203262 -158.3125 54.375 C-157.77222168 53.95831055 -157.23194336 53.54162109 -156.67529297 53.11230469 C-146.6802884 45.4290127 -136.22040964 38.68657032 -125.3125 32.375 C-124.63525879 31.98070801 -123.95801758 31.58641602 -123.26025391 31.18017578 C-85.78842175 9.62720879 -42.92346256 -0.0873199 0 0 Z " fill="#F77B71" transform="translate(255.3125,-0.375)"/>
<path d="M0 0 C0.66 0.33 1.32 0.66 2 1 C-0.49565251 3.52516805 -2.99732451 6.04429373 -5.5 8.5625 C-6.54414062 9.61920898 -6.54414062 9.61920898 -7.609375 10.69726562 C-11.64433672 14.75090773 -15.77821831 18.59996552 -20.11132812 22.33178711 C-23.04380547 24.9219652 -25.76686893 27.70276834 -28.5 30.5 C-31.8877966 33.93037996 -35.25222089 37.32284475 -38.9375 40.4375 C-42.84272958 43.74575181 -46.4025756 47.36532835 -50 51 C-56.36668781 57.42643336 -62.92273114 63.3623807 -70 69 C-70.90878906 68.3709375 -71.81757813 67.741875 -72.75390625 67.09375 C-107.5805062 43.24998718 -147.39927862 32.6447162 -189.36767578 40.46972656 C-215.69776872 45.773841 -238.6440555 57.62222536 -259 75 C-259.78246094 75.64710938 -260.56492187 76.29421875 -261.37109375 76.9609375 C-267.36522498 82.05127425 -272.2103561 87.7794607 -277 94 C-277.66902344 94.85335937 -278.33804688 95.70671875 -279.02734375 96.5859375 C-287.94988123 108.35308593 -294.55029058 121.32229792 -300 135 C-300.66 134.67 -301.32 134.34 -302 134 C-299.16405403 106.20772947 -272.39966712 78.5753149 -252.17578125 61.7265625 C-232.83916053 46.46122646 -209.1108886 37.23730963 -185 33 C-184.0203125 32.79632813 -183.040625 32.59265625 -182.03125 32.3828125 C-145.75896968 25.55838863 -108.67048555 36.88640003 -78 56 C-76.73428841 56.94697516 -75.47480841 57.90235449 -74.22265625 58.8671875 C-71.36254937 61.24512989 -71.36254937 61.24512989 -69.00390625 60.81103516 C-66.73656479 59.89338063 -65.46303202 58.8606746 -63.71484375 57.15625 C-63.10769531 56.57423828 -62.50054687 55.99222656 -61.875 55.39257812 C-61.235625 54.76802734 -60.59625 54.14347656 -59.9375 53.5 C-55.57708102 49.32861653 -51.23042261 45.25588442 -46.5 41.5 C-40.51657579 36.72399323 -35.01224279 31.47720585 -29.4453125 26.23046875 C-26.32224078 23.28967421 -23.13727908 20.43600823 -19.88671875 17.63671875 C-17.56341213 15.62126228 -15.28251535 13.56151538 -13 11.5 C-8.70405255 7.62300718 -4.36848754 3.79497102 0 0 Z " fill="#DE4D42" transform="translate(417,70)"/>
<path d="M0 0 C0.66 0.33 1.32 0.66 2 1 C0.43229025 5.4400907 -3.10677689 7.83169401 -6.6875 10.625 C-7.35958496 11.15351563 -8.03166992 11.68203125 -8.72412109 12.2265625 C-41.58677548 37.74976292 -80.12094133 54.55432606 -121 62 C-122.25345215 62.24556641 -122.25345215 62.24556641 -123.53222656 62.49609375 C-151.25331812 67.7887992 -183.33809037 67.39940744 -211 62 C-211.89702637 61.83902832 -212.79405273 61.67805664 -213.71826172 61.51220703 C-252.63143179 54.47090509 -299.76062109 37.26099791 -328 8 C-328.33 7.01 -328.66 6.02 -329 5 C-326.06806656 6.38889734 -323.45152556 7.98516459 -320.7890625 9.8359375 C-274.73756142 41.44947532 -222.80759936 58.76680005 -166.8125 58.4375 C-165.69414764 58.43412628 -164.57579529 58.43075256 -163.42355347 58.42727661 C-146.62149787 58.35395888 -130.45010495 57.69363343 -114 54 C-112.30907227 53.63793457 -112.30907227 53.63793457 -110.58398438 53.26855469 C-72.61156626 45.00690378 -27.58212273 28.87827511 0 0 Z " fill="#1AAA68" transform="translate(422,447)"/>
<path d="M0 0 C82.83 0 165.66 0 251 0 C251.33 1.98 251.66 3.96 252 6 C168.84 6 85.68 6 0 6 C0 4.02 0 2.04 0 0 Z " fill="#54AEF5" transform="translate(256,202)"/>
<path d="M0 0 C46.2 0 92.4 0 140 0 C139.34 1.98 138.68 3.96 138 6 C92.46 6 46.92 6 0 6 C0 4.02 0 2.04 0 0 Z " fill="#2E8FDD" transform="translate(256,304)"/>
<path d="M0 0 C0.99 1.32 1.98 2.64 3 4 C2.52691406 4.82757813 2.05382812 5.65515625 1.56640625 6.5078125 C-6.96841443 21.78007478 -13.78366145 38.0057621 -18 55 C-18.41144623 56.56675196 -18.82430877 58.13313239 -19.23828125 59.69921875 C-24.57669823 80.12266305 -26.80391152 99.9578618 -28 121 C-28.33 121 -28.66 121 -29 121 C-30.62045004 78.44448897 -19.15796536 37.70966599 0 0 Z " fill="#FED864" transform="translate(29,135)"/>
<path d="M0 0 C0.66 0 1.32 0 2 0 C1.35281238 5.4829153 0.07087105 10.57243244 -1.4375 15.875 C-3.91444151 24.8619996 -5.20444964 33.72649508 -6 43 C-6.33 43 -6.66 43 -7 43 C-7.51884595 34.42462951 -6.79136107 26.53489445 -5.1875 18.125 C-5.02217773 17.24626221 -4.85685547 16.36752441 -4.68652344 15.4621582 C-3.59986289 10.05699403 -2.069124 5.11055841 0 0 Z " fill="#EFBD23" transform="translate(114,204)"/>
<path d="M0 0 C3.79024701 1.58888575 6.34088016 4.00900575 9.3125 6.8125 C13.37291072 10.57355068 17.39928127 13.93285418 22 17 C21.67 18.32 21.34 19.64 21 21 C18.43194695 18.63094737 15.87161234 16.25370494 13.3125 13.875 C12.59126953 13.20984375 11.87003906 12.5446875 11.12695312 11.859375 C7.09746171 8.10587615 3.41382085 4.32282641 0 0 Z " fill="#32B77A" transform="translate(72,434)"/>
<path d="M0 0 C0.66 0.33 1.32 0.66 2 1 C0.45771856 5.40064304 -3.01426977 7.59595898 -6.625 10.25 C-7.54152344 10.93835938 -7.54152344 10.93835938 -8.4765625 11.640625 C-9.9790792 12.76751252 -11.48884409 13.88472437 -13 15 C-13.66 14.67 -14.32 14.34 -15 14 C-11.27954702 10.03951779 -7.24390197 6.80132415 -2.890625 3.55078125 C-0.89411542 2.12817032 -0.89411542 2.12817032 0 0 Z " fill="#09A55F" transform="translate(422,447)"/>
<path d="M0 0 C0.66 0.33 1.32 0.66 2 1 C0.06852571 2.9853759 -1.86966609 4.96329392 -3.8125 6.9375 C-4.35970703 7.50146484 -4.90691406 8.06542969 -5.47070312 8.64648438 C-9.66015625 12.88671875 -9.66015625 12.88671875 -13 14 C-13.33 13.34 -13.66 12.68 -14 12 C-12.86111328 11.07767578 -12.86111328 11.07767578 -11.69921875 10.13671875 C-10.70535156 9.32847656 -9.71148437 8.52023437 -8.6875 7.6875 C-7.70136719 6.88699219 -6.71523438 6.08648437 -5.69921875 5.26171875 C-3.68397834 3.57311644 -1.80511991 1.90369301 0 0 Z " fill="#2591E1" transform="translate(437,435)"/>
<path d="M0 0 C1.37095624 3.69037278 0.60010967 5.70883835 -0.9375 9.25 C-1.31777344 10.14203125 -1.69804688 11.0340625 -2.08984375 11.953125 C-2.39019531 12.62859375 -2.69054687 13.3040625 -3 14 C-3.66 13.67 -4.32 13.34 -5 13 C-4.49540386 8.71093278 -3.94350927 4.88701855 -2 1 C-1.34 0.67 -0.68 0.34 0 0 Z " fill="#E55348" transform="translate(120,191)"/>
<path d="M0 0 C1 3 1 3 0.00390625 5.04296875 C-0.47175781 5.75066406 -0.94742188 6.45835937 -1.4375 7.1875 C-1.91058594 7.90292969 -2.38367187 8.61835938 -2.87109375 9.35546875 C-3.24363281 9.89816406 -3.61617187 10.44085938 -4 11 C-4.66 10.67 -5.32 10.34 -6 10 C-5.58578031 5.16743695 -3.53586014 3.17320782 0 0 Z " fill="#F88981" transform="translate(36,127)"/>
<path d="M0 0 C0.66 0.33 1.32 0.66 2 1 C-2.29 5.29 -6.58 9.58 -11 14 C-11.33 13.01 -11.66 12.02 -12 11 C-8.04 7.37 -4.08 3.74 0 0 Z " fill="#E34439" transform="translate(417,70)"/>
</svg>
